<?xml version="1.0" encoding="UTF-8" standalone="no"?>
<!-- Created with Inkscape (http://www.inkscape.org/) -->

<svg
   xmlns:dc="http://purl.org/dc/elements/1.1/"
   xmlns:cc="http://creativecommons.org/ns#"
   xmlns:rdf="http://www.w3.org/1999/02/22-rdf-syntax-ns#"
   xmlns:svg="http://www.w3.org/2000/svg"
   xmlns="http://www.w3.org/2000/svg"
   xmlns:sodipodi="http://sodipodi.sourceforge.net/DTD/sodipodi-0.dtd"
   xmlns:inkscape="http://www.inkscape.org/namespaces/inkscape"
   width="192.15314mm"
   height="80.214066mm"
   viewBox="0 0 192.15314 80.214066"
   version="1.1"
   id="svg4551"
   inkscape:version="0.92.1 r15371"
   sodipodi:docname="shar-logo.svg.2022_05_25_12_45_52.0.svg">
  <defs
     id="defs4545" />
  <sodipodi:namedview
     id="base"
     pagecolor="#ffffff"
     bordercolor="#666666"
     borderopacity="1.0"
     inkscape:pageopacity="0.0"
     inkscape:pageshadow="2"
     inkscape:zoom="2"
     inkscape:cx="437.14819"
     inkscape:cy="130.20562"
     inkscape:document-units="mm"
     inkscape:current-layer="layer1"
     showgrid="false"
     inkscape:window-width="3440"
     inkscape:window-height="1387"
     inkscape:window-x="-8"
     inkscape:window-y="-8"
     inkscape:window-maximized="1"
     showguides="false" />
  <metadata
     id="metadata4548">
    <rdf:RDF>
      <cc:Work
         rdf:about="">
        <dc:format>image/svg+xml</dc:format>
        <dc:type
           rdf:resource="http://purl.org/dc/dcmitype/StillImage" />
        <dc:title />
      </cc:Work>
    </rdf:RDF>
  </metadata>
  <g
     inkscape:label="Layer 1"
     inkscape:groupmode="layer"
     id="layer1"
     transform="translate(-7.1051386,-7.8147761)">
    <path
       style="fill:#ffcc00;fill-opacity:1;stroke:#000000;stroke-width:0.64075601;stroke-linecap:butt;stroke-linejoin:round;stroke-miterlimit:4;stroke-dasharray:none;stroke-dashoffset:6.66666698;stroke-opacity:1;paint-order:normal"
       d="m 184.78,60.803917 c -3.9317,-6.504156 -5.70995,-1.663031 -8.05656,0.183789 l 8.3437,7.222061 0.19565,11.901901 c 1.73228,-4.225486 4.70508,-6.660146 5.19381,-12.680797 z"
       id="rect5675-3-2"
       inkscape:connector-curvature="0"
       sodipodi:nodetypes="cccccc" />
    <path
       style="fill:#ffcc00;fill-opacity:1;stroke:#000000;stroke-width:0.64075601;stroke-linecap:butt;stroke-linejoin:round;stroke-miterlimit:4;stroke-dasharray:none;stroke-dashoffset:6.66666698;stroke-opacity:1;paint-order:normal"
       d="m 160.23257,55.622433 c 5.47854,-5.725843 5.20962,-1.262448 6.45758,0.511754 l -9.30379,6.18739 -4.35898,10.777539 c 0.0889,-3.903509 -1.45854,-6.237242 0.27067,-11.714308 z"
       id="rect5675-5-9-5"
       inkscape:connector-curvature="0"
       sodipodi:nodetypes="cccccc" />
    <path
       style="fill:#ffcc00;fill-opacity:1;stroke:#000000;stroke-width:0.64075595;stroke-linecap:butt;stroke-linejoin:round;stroke-miterlimit:4;stroke-dasharray:none;stroke-dashoffset:6.66666698;stroke-opacity:1;paint-order:normal"
       d="m 160.46023,59.326552 c 4.7191,-5.957554 5.87388,-0.931105 7.96936,1.196389 l -9.18636,6.114422 -1.69217,11.782618 c -1.18664,-4.409918 -3.82936,-7.199394 -3.5564,-13.233679 z"
       id="rect5675-3"
       inkscape:connector-curvature="0"
       sodipodi:nodetypes="cccccc" />
    <text
       xml:space="preserve"
       style="font-style:normal;font-weight:normal;font-size:6.09676743px;line-height:1.25;font-family:sans-serif;letter-spacing:0px;word-spacing:0px;fill:#ffcc00;fill-opacity:1;stroke:#1c1c1c;stroke-width:0.57607251;stroke-miterlimit:4;stroke-dasharray:none;stroke-opacity:1"
       x="10.544469"
       y="68.335953"
       id="text5935"><tspan
         sodipodi:role="line"
         id="tspan5933"
         x="10.544469"
         y="68.335953"
         style="font-style:normal;font-variant:normal;font-weight:normal;font-stretch:normal;font-size:60.96767426px;font-family:'Rockwell Condensed';-inkscape-font-specification:'Rockwell Condensed, ';fill:#ffcc00;fill-opacity:1;stroke:#1c1c1c;stroke-width:0.57607251;stroke-miterlimit:4;stroke-dasharray:none;stroke-opacity:1">S.H.A.R</tspan></text>
    <text
       xml:space="preserve"
       style="font-style:normal;font-weight:normal;font-size:6.09676743px;line-height:1.25;font-family:sans-serif;letter-spacing:0px;word-spacing:0px;fill:#000000;fill-opacity:1;stroke:#ffcc00;stroke-width:0.15241918;stroke-opacity:1"
       x="11.418952"
       y="76.569443"
       id="text5841-4"
       transform="rotate(-2.6289127)"><tspan
         sodipodi:role="line"
         id="tspan5839-8"
         x="11.418952"
         y="76.569443"
         style="font-style:normal;font-variant:normal;font-weight:normal;font-stretch:normal;font-size:10.16127872px;font-family:Rockwell;-inkscape-font-specification:Rockwell;fill:#000000;stroke:#ffcc00;stroke-width:0.15241918;stroke-opacity:1">Scala+HermiT API and REPL</tspan></text>
    <path
       style="fill:#ffcc00;fill-opacity:1;stroke:#000000;stroke-width:0.55435199;stroke-linecap:butt;stroke-linejoin:round;stroke-miterlimit:4;stroke-dasharray:none;stroke-dashoffset:6.66666698;stroke-opacity:1;paint-order:normal"
       d="m 166.08318,57.078602 c 10.96343,-3.56987 17.8996,0.02259 21.68957,9.210441 l -2.79753,8.055858 c -1.45485,1.63108 -7.87415,-0.830026 -12.8317,-1.775819 -4.91164,-2.737833 -8.33994,-4.975613 -9.80781,-7.90586 z"
       id="rect5651-0"
       inkscape:connector-curvature="0"
       sodipodi:nodetypes="cccccc" />
    <path
       style="fill:#ffcc00;fill-opacity:1;stroke:#000000;stroke-width:0.55435199;stroke-linecap:butt;stroke-linejoin:round;stroke-miterlimit:4;stroke-dasharray:none;stroke-dashoffset:6.66666698;stroke-opacity:1;paint-order:normal"
       d="m 161.33708,60.739647 c 0.90461,-5.995734 1.48385,-13.077162 7.34723,-2.525604 l -4.36246,8.414591 4.58066,10.340971 c -7.5597,-3.885404 -9.42968,-6.584591 -10.31122,-8.800224 z"
       id="rect5680-4"
       inkscape:connector-curvature="0"
       sodipodi:nodetypes="cccccc" />
    <path
       style="fill:#ffcc00;fill-opacity:1;stroke:#000000;stroke-width:0.55435199;stroke-linecap:butt;stroke-linejoin:round;stroke-miterlimit:4;stroke-dasharray:none;stroke-dashoffset:6.66666698;stroke-opacity:1;paint-order:normal"
       d="m 188.3152,68.258319 c 1.90028,-5.75941 4.58137,-12.342 -5.41901,-5.555537 l 0.0945,9.472407 -8.76001,7.174721 c 8.50414,-0.07284 11.39275,-1.642643 13.18047,-3.224744 z"
       id="rect5680-5-6"
       inkscape:connector-curvature="0"
       sodipodi:nodetypes="cccccc" />
    <path
       style="fill:#ffcc00;fill-opacity:1;stroke:#000000;stroke-width:0.64075595;stroke-linecap:butt;stroke-linejoin:round;stroke-miterlimit:4;stroke-dasharray:none;stroke-dashoffset:6.66666698;stroke-opacity:1;paint-order:normal"
       d="m 191.67783,65.37301 c -0.89447,-7.863016 -3.38553,-4.144811 -5.4552,-3.48317 l 3.66242,10.535581 -3.05947,11.213322 c 2.29514,-3.16365 4.94258,-4.09064 6.88459,-9.496343 z"
       id="rect5675-5-9"
       inkscape:connector-curvature="0"
       sodipodi:nodetypes="cccccc" />
    <path
       style="fill:#ffcc00;fill-opacity:1;stroke:#000000;stroke-width:0.55435205;stroke-linecap:butt;stroke-linejoin:round;stroke-miterlimit:4;stroke-dasharray:none;stroke-dashoffset:6.66666698;stroke-opacity:1;paint-order:normal"
       d="m 183.38586,73.085438 -10.10265,5.316022 c 3.3922,-7.769438 7.49582,-7.490269 9.65644,-8.51095 3.8001,2.717499 -0.58479,3.516426 0.44621,3.194928 z"
       id="rect5680-4-6-5"
       inkscape:connector-curvature="0"
       sodipodi:nodetypes="cccc" />
    <path
       style="fill:#ffffff;fill-opacity:1;stroke:#080808;stroke-width:0.64075595;stroke-linecap:butt;stroke-linejoin:round;stroke-miterlimit:4;stroke-dasharray:none;stroke-dashoffset:6.66666698;stroke-opacity:1;paint-order:normal"
       d="m 191.18594,67.371519 c -1.64923,2.162941 -6.1006,3.091293 -7.06724,3.222035 -1.37067,-0.686734 -1.53221,-3.1083 -2.64214,-6.358808 -2.44781,-2.678798 -5.33419,-3.532535 -7.63717,-3.957697 -3.15061,-0.581648 -7.9237,1.70211 -7.92759,3.350668 -0.006,2.380698 -4.69182,-2.733438 -2.71054,-6.47479 2.99806,-5.661428 6.56767,-14.692217 12.08627,-16.364535 2.17387,-0.658759 6.8654,1.574447 9.08381,3.267991 9.19853,7.022204 12.22951,16.213876 6.8146,23.315136 z"
       id="path4508"
       inkscape:connector-curvature="0"
       sodipodi:nodetypes="sccssssss" />
    <path
       style="fill:#ffffff;fill-opacity:1;stroke:#000000;stroke-width:0.64075595;stroke-linecap:butt;stroke-linejoin:round;stroke-miterlimit:4;stroke-dasharray:none;stroke-dashoffset:6.66666698;stroke-opacity:1;paint-order:normal"
       d="m 156.9309,40.283761 c 6.24958,0.815552 12.79199,-7.601017 15.74643,-11.347489 4.34308,2.435031 8.35511,5.105272 9.02656,10.149164 -0.80797,5.084886 -13.33268,28.530121 -27.96318,19.416711 -2.62648,-2.712066 1.29795,-5.279089 3.19019,-18.218386 z"
       id="rect4495-3"
       inkscape:connector-curvature="0"
       sodipodi:nodetypes="ccccc" />
    <path
       style="fill:#ffffff;fill-opacity:1;stroke:#000000;stroke-width:0.64075595;stroke-linecap:butt;stroke-linejoin:round;stroke-miterlimit:4;stroke-dasharray:none;stroke-dashoffset:6.66666698;stroke-opacity:1;paint-order:normal"
       d="m 156.95391,26.050238 c 6.44211,-2.880701 6.73454,-3.472931 9.63281,-6.086537 1.14085,1.119026 2.28188,0.290575 4.40159,7.847742 -1.58959,3.815645 -6.73398,9.580893 -14.09308,11.438086 1.10159,-4.125315 1.36895,-9.103613 0.0587,-13.199291 z"
       id="rect4495-3-0"
       inkscape:connector-curvature="0"
       sodipodi:nodetypes="ccccc" />
    <path
       style="fill:#ffcc00;fill-opacity:1;stroke:#000000;stroke-width:0.55435205;stroke-linecap:butt;stroke-linejoin:round;stroke-miterlimit:4;stroke-dasharray:none;stroke-dashoffset:6.66666698;stroke-opacity:1;paint-order:normal"
       d="m 163.62773,68.158813 6.62277,8.198494 c -0.17739,-8.472506 -3.17371,-10.465025 -4.78328,-12.228285 -5.43218,2.089824 -1.29194,4.414273 -1.83949,4.029791 z"
       id="rect5680-4-6"
       inkscape:connector-curvature="0"
       sodipodi:nodetypes="cccc" />
    <path
       style="fill:#ffffff;fill-opacity:1;stroke:#000000;stroke-width:0.64075595;stroke-linecap:butt;stroke-linejoin:round;stroke-miterlimit:4;stroke-dasharray:none;stroke-dashoffset:6.66666698;stroke-opacity:1;paint-order:normal"
       d="m 156.61153,18.149082 c 3.58138,-1.434372 4.51572,-2.118773 5.16583,-3.419901 2.21348,1.805161 3.51379,2.982171 2.88708,4.459393 -0.90468,2.044191 -1.94662,2.646492 -7.78028,4.908104 0.53832,-1.654381 0.1688,-3.735543 -0.27263,-5.947596 z"
       id="rect4495-3-0-2"
       inkscape:connector-curvature="0"
       sodipodi:nodetypes="ccccc" />
    <path
       style="fill:#ffcc00;fill-opacity:1;stroke:#000000;stroke-width:0.64075595;stroke-linecap:butt;stroke-linejoin:round;stroke-miterlimit:4;stroke-dasharray:none;stroke-dashoffset:6.66666698;stroke-opacity:1;paint-order:normal"
       d="m 174.25771,63.864395 c -0.5716,0.669683 -1.76855,0.03321 -1.84968,-0.383976 -0.10194,-0.52438 1.58195,-2.20128 0.66866,-4.895258 -0.24324,-0.717489 -0.47311,-1.517757 -0.0913,-2.477092 0.60124,-1.337723 0.42111,-1.772546 2.55342,-2.70461 1.42708,-0.512869 3.40084,-0.527559 3.3105,0.842609 0.0287,1.38595 -1.54498,3.642171 -2.87358,4.322353 -1.4643,0.749676 -1.63211,5.37584 -1.718,5.295978 z"
       id="path5656-6-8-45-4"
       inkscape:connector-curvature="0"
       sodipodi:nodetypes="csscccsc" />
    <path
       style="fill:#000000;fill-opacity:1;stroke:#000000;stroke-width:0.38936362;stroke-linecap:butt;stroke-linejoin:round;stroke-miterlimit:4;stroke-dasharray:none;stroke-dashoffset:6.66666698;stroke-opacity:1;paint-order:normal"
       d="m 175.74112,56.159907 c 0.21216,0.02022 0.5088,0.08328 0.79176,-0.04699 0.19813,-0.09121 0.40359,-0.330535 0.50867,-0.518043 0.30711,-0.407914 0.0424,-1.107078 -0.35797,-1.177529 -0.14279,-0.01373 -0.40422,-0.04017 -0.65165,0.04056 -0.37751,0.123166 -0.75775,0.408597 -0.91188,0.683636 -0.12195,0.205151 -0.25667,0.424211 -0.15494,0.602158 0.13456,0.235944 0.56114,0.40403 0.77627,0.416263 z"
       id="path5656-6-8-4-7-7-8"
       inkscape:connector-curvature="0"
       sodipodi:nodetypes="csccscsc" />
    <path
       style="fill:#ffcc00;fill-opacity:1;stroke:#000000;stroke-width:0.64075595;stroke-linecap:butt;stroke-linejoin:round;stroke-miterlimit:4;stroke-dasharray:none;stroke-dashoffset:6.66666698;stroke-opacity:1;paint-order:normal"
       d="m 178.3863,65.344693 c -0.35611,0.804399 0.73987,1.601349 1.15202,1.492526 0.51804,-0.136784 1.29951,-2.377814 4.13081,-2.730898 0.75398,-0.09408 1.57693,-0.236173 2.27731,-0.99633 0.94662,-1.121814 1.4178,-1.149468 1.33154,-3.468475 -0.15795,-1.503758 -1.00387,-3.281154 -2.2022,-2.603658 -1.26446,0.577492 -2.61742,2.971741 -2.65348,4.459944 -0.0398,1.640224 -4.14552,3.804591 -4.036,3.846891 z"
       id="path5656-6-8-45-4-2"
       inkscape:connector-curvature="0"
       sodipodi:nodetypes="csscccsc" />
    <path
       style="fill:#000000;fill-opacity:1;stroke:#000000;stroke-width:0.38936362;stroke-linecap:butt;stroke-linejoin:round;stroke-miterlimit:4;stroke-dasharray:none;stroke-dashoffset:6.66666698;stroke-opacity:1;paint-order:normal"
       d="m 184.78,60.803917 c -0.12807,-0.169777 -0.33696,-0.388998 -0.37326,-0.697533 -0.0254,-0.216053 0.072,-0.515689 0.17762,-0.702904 0.18863,-0.474075 0.92514,-0.614136 1.19445,-0.310664 0.0863,0.114289 0.24547,0.322619 0.30561,0.575108 0.0918,0.385211 0.0461,0.857469 -0.1087,1.132118 -0.11192,0.210758 -0.22894,0.439694 -0.43431,0.446156 -0.27214,0.0088 -0.63872,-0.265979 -0.76155,-0.442453 z"
       id="path5656-6-8-4-7-7-8-0"
       inkscape:connector-curvature="0"
       sodipodi:nodetypes="csccscsc" />
  </g>
</svg>
