<?xml version="1.0" encoding="UTF-8" standalone="no"?>
<!-- Created with Inkscape (http://www.inkscape.org/) -->

<svg
   width="840.41632"
   height="270.42584"
   viewBox="0 0 222.36015 71.550171"
   version="1.1"
   id="svg4551"
   inkscape:version="1.2.2 (b0a8486541, 2022-12-01)"
   sodipodi:docname="shar-logo.svg"
   xml:space="preserve"
   inkscape:export-filename="shar-logo.png"
   inkscape:export-xdpi="96"
   inkscape:export-ydpi="96"
   xmlns:inkscape="http://www.inkscape.org/namespaces/inkscape"
   xmlns:sodipodi="http://sodipodi.sourceforge.net/DTD/sodipodi-0.dtd"
   xmlns="http://www.w3.org/2000/svg"
   xmlns:svg="http://www.w3.org/2000/svg"
   xmlns:rdf="http://www.w3.org/1999/02/22-rdf-syntax-ns#"
   xmlns:cc="http://creativecommons.org/ns#"
   xmlns:dc="http://purl.org/dc/elements/1.1/"><defs
     id="defs4545" /><sodipodi:namedview
     id="base"
     pagecolor="#ffffff"
     bordercolor="#666666"
     borderopacity="1.0"
     inkscape:pageopacity="0.0"
     inkscape:pageshadow="2"
     inkscape:zoom="0.70710678"
     inkscape:cx="-127.98633"
     inkscape:cy="506.99556"
     inkscape:document-units="mm"
     inkscape:current-layer="layer1"
     showgrid="false"
     inkscape:window-width="3440"
     inkscape:window-height="1372"
     inkscape:window-x="0"
     inkscape:window-y="0"
     inkscape:window-maximized="1"
     showguides="false"
     fit-margin-top="1"
     fit-margin-left="1"
     fit-margin-right="1"
     fit-margin-bottom="1"
     inkscape:showpageshadow="0"
     inkscape:pagecheckerboard="0"
     inkscape:deskcolor="#d1d1d1" /><metadata
     id="metadata4548"><rdf:RDF><cc:Work
         rdf:about=""><dc:format>image/svg+xml</dc:format><dc:type
           rdf:resource="http://purl.org/dc/dcmitype/StillImage" /></cc:Work></rdf:RDF></metadata><g
     inkscape:label="Layer 1"
     inkscape:groupmode="layer"
     id="layer1"
     transform="translate(-13.275298,-11.227024)"><g
       aria-label="S.H.  .R"
       style="font-style:normal;font-weight:normal;font-size:6.09677px;line-height:1.25;font-family:sans-serif;letter-spacing:0px;word-spacing:0px;fill:#ffffff;fill-opacity:1;stroke:#343941;stroke-width:0.576073;stroke-miterlimit:4;stroke-dasharray:none;stroke-opacity:1"
       id="text5935" /><path
       d="m 67.170799,25.448369 v 5.864567 q -3.423477,-1.637316 -6.459957,-2.441089 -3.036477,-0.803773 -5.864564,-0.803773 -4.91195,0 -7.59119,1.90524 -2.649474,1.90524 -2.649474,5.418026 0,2.947167 1.756393,4.465405 1.786162,1.488469 6.727881,2.41132 l 3.631857,0.744234 q 6.727877,1.280083 9.913204,4.524944 3.21509,3.215093 3.21509,8.633118 0,6.459954 -4.346327,9.794124 -4.31656,3.33417 -12.681754,3.33417 -3.155551,0 -6.727876,-0.714465 -3.542555,-0.714465 -7.353035,-2.113626 v -6.192029 q 3.661633,2.054086 7.174419,3.096014 3.512786,1.041929 6.906492,1.041929 5.150107,0 7.948424,-2.024318 2.79832,-2.024317 2.79832,-5.775258 0,-3.274631 -2.02432,-5.120332 -1.994547,-1.845701 -6.579024,-2.768552 l -3.66164,-0.714465 q -6.727874,-1.339621 -9.73458,-4.197481 -3.006707,-2.85786 -3.006707,-7.948422 0,-5.894336 4.137943,-9.288045 4.167712,-3.393708 11.461204,-3.393708 3.125787,0 6.370654,0.565618 3.24486,0.565618 6.638567,1.696854 z"
       style="font-style:normal;font-variant:normal;font-weight:normal;font-stretch:normal;font-size:60.9677px;line-height:1.25;font-family:'Rockwell Condensed';-inkscape-font-specification:'Rockwell Condensed, ';letter-spacing:0px;word-spacing:0px;fill:#0d1117;fill-opacity:1;stroke:#b5b5c8;stroke-width:0.576073;stroke-miterlimit:4;stroke-dasharray:none;stroke-opacity:1"
       id="path896"
       inkscape:connector-curvature="0" /><path
       d="m 71.774954,60.873922 h 6.281338 v 7.561421 h -6.281338 z"
       style="font-style:normal;font-variant:normal;font-weight:normal;font-stretch:normal;font-size:60.9677px;line-height:1.25;font-family:'Rockwell Condensed';-inkscape-font-specification:'Rockwell Condensed, ';letter-spacing:0px;word-spacing:0px;fill:#0d1117;fill-opacity:1;stroke:#b5b5c8;stroke-width:0.576073;stroke-miterlimit:4;stroke-dasharray:none;stroke-opacity:1"
       id="path898"
       inkscape:connector-curvature="0" /><path
       d="m 79.969491,23.98967 h 6.013413 V 42.208526 H 107.83362 V 23.98967 h 6.01342 v 44.445673 h -6.01342 V 47.269319 H 85.982904 v 21.166024 h -6.013413 z"
       style="font-style:normal;font-variant:normal;font-weight:normal;font-stretch:normal;font-size:60.9677px;line-height:1.25;font-family:'Rockwell Condensed';-inkscape-font-specification:'Rockwell Condensed, ';letter-spacing:0px;word-spacing:0px;fill:#0d1117;fill-opacity:1;stroke:#b5b5c8;stroke-width:0.576;stroke-miterlimit:4;stroke-dasharray:none;stroke-opacity:1"
       id="path900"
       inkscape:connector-curvature="0" /><path
       d="m 115.75347,60.873922 h 6.28134 v 7.561421 h -6.28134 z"
       style="font-style:normal;font-variant:normal;font-weight:normal;font-stretch:normal;font-size:60.9677px;line-height:1.25;font-family:'Rockwell Condensed';-inkscape-font-specification:'Rockwell Condensed, ';letter-spacing:0px;word-spacing:0px;fill:#0d1117;fill-opacity:1;stroke:#b5b5c8;stroke-width:0.576073;stroke-miterlimit:4;stroke-dasharray:none;stroke-opacity:1"
       id="path902"
       inkscape:connector-curvature="0" /><path
       d="m 167.35596,60.873922 h 6.28134 v 7.561421 h -6.28134 z"
       style="font-style:normal;font-variant:normal;font-weight:normal;font-stretch:normal;font-size:60.9677px;line-height:1.25;font-family:'Rockwell Condensed';-inkscape-font-specification:'Rockwell Condensed, ';letter-spacing:0px;word-spacing:0px;fill:#0d1117;fill-opacity:1;stroke:#b5b5c8;stroke-width:0.576073;stroke-miterlimit:4;stroke-dasharray:none;stroke-opacity:1"
       id="path904"
       inkscape:connector-curvature="0" /><path
       d="m 196.62421,47.596782 q 1.93501,0.654926 3.75094,2.798321 1.84571,2.143395 3.69141,5.894336 l 6.10272,12.145904 h -6.45996 l -5.68595,-11.40167 q -2.20293,-4.465406 -4.28679,-5.924105 -2.05408,-1.458699 -5.62641,-1.458699 h -6.54926 V 68.435343 H 175.5475 V 23.98967 h 13.57483 q 7.62096,0 11.3719,3.185323 3.75094,3.185323 3.75094,9.615507 0,4.197482 -1.96478,6.966033 -1.93501,2.768552 -5.65618,3.840249 z m -15.0633,-18.665396 v 15.777767 h 7.56142 q 4.34633,0 6.54926,-1.994548 2.23271,-2.024317 2.23271,-5.924105 0,-3.899788 -2.23271,-5.864566 -2.20293,-1.994548 -6.54926,-1.994548 z"
       style="font-style:normal;font-variant:normal;font-weight:normal;font-stretch:normal;font-size:60.9677px;line-height:1.25;font-family:'Rockwell Condensed';-inkscape-font-specification:'Rockwell Condensed, ';letter-spacing:0px;word-spacing:0px;fill:#0d1117;fill-opacity:1;stroke:#b5b5c8;stroke-width:0.576073;stroke-miterlimit:4;stroke-dasharray:none;stroke-opacity:1"
       id="path906"
       inkscape:connector-curvature="0" /><rect
       style="fill:#de322f;fill-opacity:1;stroke:#a41c1a;stroke-width:0.598;stroke-dasharray:none;stroke-opacity:1"
       id="rect311"
       width="4.427134"
       height="171.93176"
       x="71.638191"
       y="-210.66957"
       transform="rotate(90)" /><g
       id="g2395"
       transform="translate(0.13229166,0.03307292)"><path
         style="fill:#b5b5c8;fill-opacity:1;stroke:#343942;stroke-width:0.640756;stroke-linecap:butt;stroke-linejoin:round;stroke-miterlimit:4;stroke-dasharray:none;stroke-dashoffset:6.66667;stroke-opacity:1;paint-order:normal"
         d="m 158.53644,51.82251 c -4.46018,-6.153797 -5.8287,-1.181288 -8.0132,0.854706 l 8.91665,6.501437 1.18706,11.844171 c 1.37403,-4.355179 4.13354,-7.029164 4.11871,-13.069599 z"
         id="rect5675-3-2"
         inkscape:connector-curvature="0"
         sodipodi:nodetypes="cccccc" /><path
         style="fill:#b5b5c8;fill-opacity:1;stroke:#343942;stroke-width:0.640756;stroke-linecap:butt;stroke-linejoin:round;stroke-miterlimit:4;stroke-dasharray:none;stroke-dashoffset:6.66667;stroke-opacity:1;paint-order:normal"
         d="m 131.74854,53.540028 c 5.47853,-5.72584 5.20961,-1.26245 6.45757,0.51175 l -9.30378,6.18739 -4.35898,10.77754 c 0.0889,-3.90351 -1.45854,-6.23724 0.27067,-11.71431 z"
         id="rect5675-5-9-5"
         inkscape:connector-curvature="0"
         sodipodi:nodetypes="cccccc" /><path
         style="fill:#b5b5c8;fill-opacity:1;stroke:#343942;stroke-width:0.640756;stroke-linecap:butt;stroke-linejoin:round;stroke-miterlimit:4;stroke-dasharray:none;stroke-dashoffset:6.66667;stroke-opacity:1;paint-order:normal"
         d="m 132.35325,56.922305 c 4.71909,-5.95756 5.87387,-0.93111 7.96935,1.19639 l -9.18635,6.11442 -1.69217,11.78262 c -1.18665,-4.40992 -3.82936,-7.1994 -3.5564,-13.23368 z"
         id="rect5675-3"
         inkscape:connector-curvature="0"
         sodipodi:nodetypes="cccccc" /><path
         style="fill:#b5b5c8;fill-opacity:1;stroke:#343942;stroke-width:0.554352;stroke-linecap:butt;stroke-linejoin:round;stroke-miterlimit:4;stroke-dasharray:none;stroke-dashoffset:6.66667;stroke-opacity:1;paint-order:normal"
         d="m 137.59914,54.996198 c 10.96343,-3.56987 17.89959,0.0226 21.68956,9.21044 l -2.79753,8.05586 c -1.45485,1.63108 -7.87414,-0.83003 -12.83169,-1.77582 -4.91164,-2.73784 -8.33994,-4.97562 -9.80781,-7.90586 z"
         id="rect5651-0"
         inkscape:connector-curvature="0"
         sodipodi:nodetypes="cccccc" /><path
         style="fill:#b5b5c8;fill-opacity:1;stroke:#343942;stroke-width:0.554352;stroke-linecap:butt;stroke-linejoin:round;stroke-miterlimit:4;stroke-dasharray:none;stroke-dashoffset:6.66667;stroke-opacity:1;paint-order:normal"
         d="m 133.8655,56.704859 c 3.10181,-5.21017 6.31234,-11.548516 7.75695,0.435963 l -7.21707,6.144123 0.33639,11.305085 c -5.53269,-6.452501 -6.24489,-9.657993 -6.22447,-12.042466 z"
         id="rect5680-4"
         inkscape:connector-curvature="0"
         sodipodi:nodetypes="cccccc" /><path
         style="fill:#b5b5c8;fill-opacity:1;stroke:#343942;stroke-width:0.554352;stroke-linecap:butt;stroke-linejoin:round;stroke-miterlimit:4;stroke-dasharray:none;stroke-dashoffset:6.66667;stroke-opacity:1;paint-order:normal"
         d="m 159.83114,66.175908 c 1.90028,-5.75941 4.58137,-12.342 -5.419,-5.55553 l 0.0945,9.4724 -8.76,7.17473 c 8.50413,-0.0728 11.39274,-1.64265 13.18046,-3.22475 z"
         id="rect5680-5-6"
         inkscape:connector-curvature="0"
         sodipodi:nodetypes="cccccc" /><path
         style="fill:#b5b5c8;fill-opacity:1;stroke:#343942;stroke-width:0.640756;stroke-linecap:butt;stroke-linejoin:round;stroke-miterlimit:4;stroke-dasharray:none;stroke-dashoffset:6.66667;stroke-opacity:1;paint-order:normal"
         d="m 161.21927,57.098033 c -3.14188,-7.263316 -4.44433,-2.981492 -6.23222,-1.746704 l 6.56726,9.015699 0.33278,11.618438 c 1.27622,-3.694266 3.53978,-5.350912 3.82629,-11.087716 z"
         id="rect5675-5-9"
         inkscape:connector-curvature="0"
         sodipodi:nodetypes="cccccc" /><path
         style="fill:#b5b5c8;fill-opacity:1;stroke:#343942;stroke-width:0.554352;stroke-linecap:butt;stroke-linejoin:round;stroke-miterlimit:4;stroke-dasharray:none;stroke-dashoffset:6.66667;stroke-opacity:1;paint-order:normal"
         d="m 154.95077,71.237133 -10.36474,4.784931 c 3.79057,-7.583057 7.87418,-7.091441 10.08483,-7.998693 3.65405,2.910915 -0.76637,3.48136 0.27991,3.213762 z"
         id="rect5680-4-6-5"
         inkscape:connector-curvature="0"
         sodipodi:nodetypes="cccc" /><path
         style="fill:#b5b5c8;fill-opacity:1;stroke:#343942;stroke-width:0.554352;stroke-linecap:butt;stroke-linejoin:round;stroke-miterlimit:4;stroke-dasharray:none;stroke-dashoffset:6.66667;stroke-opacity:1;paint-order:normal"
         d="m 133.1848,64.439701 3.03637,10.092413 c 3.03524,-7.912144 1.01323,-10.888639 0.1887,-13.129166 -5.81913,-0.116288 -2.86325,3.599537 -3.22507,3.036753 z"
         id="rect5680-4-6"
         inkscape:connector-curvature="0"
         sodipodi:nodetypes="cccc" /><path
         style="fill:#de322f;fill-opacity:1;stroke:#a41c1a;stroke-width:0.640756;stroke-linecap:butt;stroke-linejoin:round;stroke-miterlimit:4;stroke-dasharray:none;stroke-dashoffset:6.66667;stroke-opacity:1;paint-order:normal"
         d="m 162.70188,65.289108 c -1.64923,2.16295 -6.10059,3.0913 -7.06723,3.22204 -1.37067,-0.68673 -1.53221,-3.1083 -2.64214,-6.35881 -2.44781,-2.6788 -5.33418,-3.53253 -7.63716,-3.9577 -3.15061,-0.58164 -7.9237,1.70211 -7.92759,3.35067 -0.006,2.3807 -4.69181,-2.73344 -2.71054,-6.47479 2.99806,-5.66143 6.56767,-14.69221 12.08627,-16.36453 2.17386,-0.65876 6.86539,1.57444 9.0838,3.26799 9.19852,7.0222 12.2295,16.21387 6.81459,23.31513 z"
         id="path4508"
         inkscape:connector-curvature="0"
         sodipodi:nodetypes="sccssssss" /><path
         style="fill:#de322f;fill-opacity:1;stroke:#a41c1a;stroke-width:0.640756;stroke-linecap:butt;stroke-linejoin:round;stroke-miterlimit:4;stroke-dasharray:none;stroke-dashoffset:6.66667;stroke-opacity:1;paint-order:normal"
         d="m 128.44686,38.715852 c 6.43667,-1.242425 12.95569,-7.671178 15.91013,-11.417648 4.34308,2.43503 8.1914,4.660934 8.86285,9.704824 -0.80797,5.08489 -13.33267,28.53012 -27.96316,19.41671 -2.62648,-2.71206 1.29795,-4.764596 3.19018,-17.703886 z"
         id="rect4495-3"
         inkscape:connector-curvature="0"
         sodipodi:nodetypes="ccccc" /><path
         style="fill:#de322f;fill-opacity:1;stroke:#a41c1a;stroke-width:0.640756;stroke-linecap:butt;stroke-linejoin:round;stroke-miterlimit:4;stroke-dasharray:none;stroke-dashoffset:6.66667;stroke-opacity:1;paint-order:normal"
         d="m 128.46987,23.967828 c 6.44211,-2.880698 7.50628,-3.823719 9.63281,-6.086534 1.14085,1.119026 4.80758,6.441115 5.03301,8.502554 -2.99275,3.301146 -7.3654,8.92608 -14.7245,10.78327 1.1016,-4.12531 1.36896,-9.10361 0.0587,-13.19929 z"
         id="rect4495-3-0"
         inkscape:connector-curvature="0"
         sodipodi:nodetypes="cccccc" /><path
         style="fill:#de322f;fill-opacity:1;stroke:#a41c1a;stroke-width:0.640756;stroke-linecap:butt;stroke-linejoin:round;stroke-miterlimit:4;stroke-dasharray:none;stroke-dashoffset:6.66667;stroke-opacity:1;paint-order:normal"
         d="m 128.12749,16.066675 c 3.58139,-1.434372 4.69113,-2.317555 5.34123,-3.618683 2.21348,1.805161 3.44363,3.356348 3.34311,4.623096 -0.14463,0.605947 -2.80022,3.079134 -8.63388,5.340746 0.10011,-1.646113 0.39097,-4.133106 -0.0505,-6.345159 z"
         id="rect4495-3-0-2"
         inkscape:connector-curvature="0"
         sodipodi:nodetypes="cccccc" /><path
         style="fill:#b5b5c8;fill-opacity:1;stroke:#343942;stroke-width:0.641;stroke-linecap:butt;stroke-linejoin:round;stroke-miterlimit:4;stroke-dasharray:none;stroke-dashoffset:6.66667;stroke-opacity:1;paint-order:normal"
         d="m 146.75589,61.267498 c -0.5716,0.66968 -1.76855,0.0332 -1.84968,-0.38398 -0.10194,-0.52438 1.58195,-2.20128 0.66866,-4.89526 -0.24324,-0.71749 -0.47311,-1.51775 -0.0913,-2.47709 0.60124,-1.33772 0.42111,-1.77255 2.55342,-2.70461 1.42707,-0.51287 3.40083,-0.52756 3.31049,0.84261 0.0287,1.38595 -1.54498,3.64217 -2.87357,4.32235 -1.4643,0.74968 -1.63211,5.37584 -1.718,5.29598 z"
         id="path5656-6-8-45-4"
         inkscape:connector-curvature="0"
         sodipodi:nodetypes="csscccsc" /><path
         style="fill:#b5b5c8;fill-opacity:1;stroke:#343942;stroke-width:0.641;stroke-linecap:butt;stroke-linejoin:round;stroke-miterlimit:4;stroke-dasharray:none;stroke-dashoffset:6.66667;stroke-opacity:1;paint-order:normal"
         d="m 148.87326,62.233298 c -0.3561,0.8044 0.73987,1.60135 1.15202,1.49253 0.51804,-0.13679 1.29951,-2.37782 4.13081,-2.7309 0.75398,-0.0941 1.57693,-0.23617 2.27731,-0.99633 0.94662,-1.12182 1.4178,-1.14947 1.33154,-3.46848 -0.15795,-1.50375 -1.00387,-3.28115 -2.2022,-2.60365 -1.26446,0.57749 -2.61742,2.97174 -2.65348,4.45994 -0.0398,1.64022 -4.14551,3.80459 -4.036,3.84689 z"
         id="path5656-6-8-45-4-2"
         inkscape:connector-curvature="0"
         sodipodi:nodetypes="csscccsc" /><ellipse
         style="fill:#e2e2e9;fill-opacity:1;stroke:#343942;stroke-width:0.519013;stroke-linecap:butt;stroke-linejoin:round;stroke-miterlimit:4;stroke-dasharray:none;stroke-dashoffset:6.66667;stroke-opacity:1;paint-order:normal"
         id="path4524"
         cx="87.329071"
         cy="138.58751"
         rx="1.276271"
         ry="0.80236292"
         transform="matrix(0.74663089,-0.66523854,0.59832838,0.80125099,0,0)" /><ellipse
         style="fill:#e2e2e9;fill-opacity:1;stroke:#343942;stroke-width:0.519013;stroke-linecap:butt;stroke-linejoin:round;stroke-miterlimit:4;stroke-dasharray:none;stroke-dashoffset:6.66667;stroke-opacity:1;paint-order:normal"
         id="path4524-4"
         cx="-25.244287"
         cy="161.96199"
         rx="1.276271"
         ry="0.80236292"
         transform="matrix(0.11226968,-0.99367777,0.98028315,0.19759792,0,0)"
         inkscape:transform-center-y="1.2160764" /></g></g></svg>
