<?xml version="1.0" encoding="UTF-8" standalone="no"?>
<!-- Created with Inkscape (http://www.inkscape.org/) -->

<svg
   width="840.41632"
   height="270.42584"
   viewBox="0 0 222.36015 71.550171"
   version="1.1"
   id="svg4551"
   inkscape:version="1.2.2 (b0a8486541, 2022-12-01)"
   sodipodi:docname="shar-logo.svg"
   xml:space="preserve"
   inkscape:export-filename="shar-logo.png"
   inkscape:export-xdpi="96"
   inkscape:export-ydpi="96"
   xmlns:inkscape="http://www.inkscape.org/namespaces/inkscape"
   xmlns:sodipodi="http://sodipodi.sourceforge.net/DTD/sodipodi-0.dtd"
   xmlns="http://www.w3.org/2000/svg"
   xmlns:svg="http://www.w3.org/2000/svg"
   xmlns:rdf="http://www.w3.org/1999/02/22-rdf-syntax-ns#"
   xmlns:cc="http://creativecommons.org/ns#"
   xmlns:dc="http://purl.org/dc/elements/1.1/"><defs
     id="defs4545" /><sodipodi:namedview
     id="base"
     pagecolor="#ffffff"
     bordercolor="#666666"
     borderopacity="1.0"
     inkscape:pageopacity="0.0"
     inkscape:pageshadow="2"
     inkscape:zoom="1"
     inkscape:cx="250"
     inkscape:cy="120.5"
     inkscape:document-units="mm"
     inkscape:current-layer="layer1"
     showgrid="false"
     inkscape:window-width="3440"
     inkscape:window-height="1372"
     inkscape:window-x="0"
     inkscape:window-y="0"
     inkscape:window-maximized="1"
     showguides="false"
     fit-margin-top="1"
     fit-margin-left="1"
     fit-margin-right="1"
     fit-margin-bottom="1"
     inkscape:showpageshadow="0"
     inkscape:pagecheckerboard="0"
     inkscape:deskcolor="#d1d1d1" /><metadata
     id="metadata4548"><rdf:RDF><cc:Work
         rdf:about=""><dc:format>image/svg+xml</dc:format><dc:type
           rdf:resource="http://purl.org/dc/dcmitype/StillImage" /></cc:Work></rdf:RDF></metadata><g
     inkscape:label="Layer 1"
     inkscape:groupmode="layer"
     id="layer1"
     transform="translate(-13.275298,-11.227024)"><g
       aria-label="S.H.  .R"
       style="font-style:normal;font-weight:normal;font-size:6.09677px;line-height:1.25;font-family:sans-serif;letter-spacing:0px;word-spacing:0px;fill:#ffffff;fill-opacity:1;stroke:#343941;stroke-width:0.576073;stroke-miterlimit:4;stroke-dasharray:none;stroke-opacity:1"
       id="text5935" /><g
       id="g6192"
       transform="matrix(-1,0,0,1,250.89806,-0.74410032)"><g
         id="g562"><path
           style="fill:#de322f;fill-opacity:1;stroke:#de322f;stroke-width:0.973509;stroke-linecap:butt;stroke-linejoin:round;stroke-miterlimit:4;stroke-dasharray:none;stroke-dashoffset:6.66667;stroke-opacity:1;paint-order:normal"
           d="m 217.29224,30.22352 c 3.8498,10.006973 5.19445,11.697767 8.45551,15.107051 -1.78981,1.640528 -10.16005,6.773823 -13.30562,6.949296 -4.76632,-4.80744 -12.94651,-11.896273 -15.16948,-23.211842 6.16941,2.004702 13.70028,2.812585 20.01959,1.155525 z"
           id="path2835"
           inkscape:connector-curvature="0"
           sodipodi:nodetypes="cccccc" /><path
           style="fill:#de322f;fill-opacity:1;stroke:#de322f;stroke-width:0.973509;stroke-linecap:butt;stroke-linejoin:round;stroke-miterlimit:4;stroke-dasharray:none;stroke-dashoffset:6.66667;stroke-opacity:1;paint-order:normal"
           d="m 229.30655,30.342438 c 1.88671,5.549718 3.13691,7.304817 5.05831,8.396302 -2.91738,3.212526 -5.37003,4.953627 -7.28368,4.698765 -0.90757,-0.268397 -4.44505,-4.497388 -7.40479,-13.531177 2.48919,0.284891 6.23864,0.927138 9.63016,0.436049 z"
           id="path2837"
           inkscape:connector-curvature="0"
           sodipodi:nodetypes="cccccc" /><path
           style="fill:#de322f;fill-opacity:1;stroke:#de322f;stroke-width:0.973509;stroke-linecap:butt;stroke-linejoin:round;stroke-miterlimit:4;stroke-dasharray:none;stroke-dashoffset:6.66667;stroke-opacity:1;paint-order:normal"
           d="m 194.92022,28.997012 c 1.36485,9.86635 10.59109,20.276687 16.03609,25.061982 -4.04501,6.392747 -8.98438,14.275662 -16.69057,14.886881 0.65243,-1.146951 2.93384,-6.030446 2.08829,-6.906797 -13.9332,5.474648 -20.04124,-4.514705 -27.03669,-11.463569 -0.35878,-0.181421 1.57161,-1.391733 1.74929,-2.294876 -1.22016,-13.541372 -11.96255,-18.341437 -10.35729,-18.697375 2.92513,-2.546044 13.24258,-6.977647 20.39667,-4.22221 3.42757,1.320149 7.50529,2.367371 13.81421,3.635964 z"
           id="path2839"
           inkscape:connector-curvature="0"
           sodipodi:nodetypes="cccccccsc" /><path
           id="rect2933"
           style="fill:#a41c1a;fill-opacity:1;stroke:none;stroke-width:0.598001;stroke-opacity:1;paint-order:stroke fill markers"
           d="m 146.38168,30.455269 7.19971,4.396099 -1.21827,1.291422 c -2.08665,-1.610735 -2.77459,-1.223504 -5.29297,-0.899934 z"
           sodipodi:nodetypes="ccccc" /><path
           style="fill:#a41c1a;fill-opacity:1;stroke:none;stroke-width:1.06075;stroke-linecap:butt;stroke-linejoin:round;stroke-miterlimit:4;stroke-dasharray:none;stroke-dashoffset:6.66667;stroke-opacity:1;paint-order:stroke fill markers"
           d="m 160.2554,53.61944 c -2.33531,-7.721494 1.759,-9.877524 6.2946,-11.968898 0.69567,-0.320779 1.75144,2.579785 2.40633,6.138262 -1.15101,1.288547 -2.40831,1.59857 -1.77813,3.376737 4.31713,5.187753 9.74321,10.499989 15.28974,13.309814 4.28625,1.974294 7.67084,0.764199 11.42027,0.295345 -3.61217,12.788521 -23.56412,4.677067 -33.63281,-11.15126 z"
           id="path4575"
           inkscape:connector-curvature="0"
           sodipodi:nodetypes="csccccc" /><path
           style="fill:#a41c1a;fill-opacity:1;stroke:none;stroke-width:1.06075;stroke-linecap:butt;stroke-linejoin:round;stroke-miterlimit:4;stroke-dasharray:none;stroke-dashoffset:6.66667;stroke-opacity:1;paint-order:stroke fill markers"
           d="m 149.08251,44.511259 c 2.53966,-7.196721 11.03112,-7.469243 16.17602,-6.484534 0.30099,0.671592 0.96969,1.198276 1.02673,1.896868 -0.18038,0.04032 -0.9795,0.378341 -1.16178,0.43218 -2.58309,0.763023 -5.29038,2.834147 -6.25017,4.7912 -1.69203,0.349611 -3.27571,1.052598 -3.82848,2.856331 -1.29834,8.501102 2.44858,12.612828 7.07135,16.23842 2.26739,4.138687 5.70696,5.182325 8.99815,7.038695 -11.17138,1.784872 -23.95808,-7.682939 -22.03182,-26.76916 z"
           id="path5447"
           inkscape:connector-curvature="0"
           sodipodi:nodetypes="cccscccccc" /><path
           style="fill:#a41c1a;fill-opacity:1;stroke:none;stroke-width:1.06075;stroke-linecap:butt;stroke-linejoin:round;stroke-miterlimit:4;stroke-dasharray:none;stroke-dashoffset:6.66667;stroke-opacity:1;paint-order:stroke fill markers"
           d="m 146.11147,48.227458 c 3.31725,-14.373426 14.40571,-12.317339 17.91602,-11.50789 0.63431,0.146266 -2.32637,-2.918409 -2.81406,-3.454606 -12.83829,0.106467 -14.40674,7.474231 -15.10196,14.962496 z"
           id="path5449"
           inkscape:connector-curvature="0"
           sodipodi:nodetypes="cscc" /><path
           id="rect5824"
           style="fill:#a41c1a;fill-opacity:1;stroke:none;stroke-width:0.598001;stroke-opacity:1;paint-order:stroke fill markers"
           d="m 127.09905,51.960214 8.48788,-9.888454 7.09231,2.538165 2.57082,-2.887068 0.24436,-0.860917 -2.95487,3.040133 -7.2872,-2.6824 -7.83653,9.686158 z"
           sodipodi:nodetypes="ccccccccc" /><g
           id="g5874"
           style="fill:#a41c1a;fill-opacity:1;stroke:none;stroke-opacity:1;paint-order:stroke fill markers"
           transform="matrix(-0.8807821,-0.4735218,-0.4735218,0.8807821,168.35777,139.99042)"><path
             id="path5871"
             style="fill:#a41c1a;fill-opacity:1;stroke:none;stroke-width:0.598001;stroke-opacity:1;paint-order:stroke fill markers"
             d="m 84.423869,-85.307693 -8.851141,0.890754 -1.884298,4.729916 -6.107598,2.113935 0.144377,-0.658568 5.468162,-1.883484 2.029066,-4.876956 10.342686,-0.901743 z"
             sodipodi:nodetypes="ccccccccc" /><path
             id="path405"
             style="fill:#a41c1a;fill-opacity:1;stroke:none;stroke-width:0.598001;stroke-opacity:1;paint-order:stroke fill markers"
             d="m 65.605027,-72.876136 -0.649839,4.683448 4.558223,5.209249 -0.211053,-0.861067 -3.825349,-4.428211 0.804267,-6.405528 c -0.12048,0.233413 -0.50475,1.422391 -0.676249,1.802109 z"
             sodipodi:nodetypes="ccccccc" /></g></g></g><text
       xml:space="preserve"
       style="font-size:45.8611px;font-family:'SauceCodePro Nerd Font';-inkscape-font-specification:'SauceCodePro Nerd Font';fill:#a41c1a;fill-opacity:1;stroke:none;stroke-width:0.598001;stroke-opacity:1;paint-order:stroke fill markers"
       x="121.0445"
       y="62.044548"
       id="text5976"><tspan
         sodipodi:role="line"
         id="tspan5974"
         style="font-size:45.8611px;fill:#a41c1a;fill-opacity:1;stroke:none;stroke-width:0.598"
         x="121.0445"
         y="62.044548">SHAR</tspan></text></g></svg>
